<?xml version="1.0" standalone="no"?>
<!DOCTYPE svg PUBLIC "-//W3C//DTD SVG 20010904//EN"
 "http://www.w3.org/TR/2001/REC-SVG-20010904/DTD/svg10.dtd">
<svg version="1.0" xmlns="http://www.w3.org/2000/svg"
 width="100.000000pt" height="100.000000pt" viewBox="0 0 100.000000 100.000000"
 preserveAspectRatio="xMidYMid meet">
<metadata>
Created by potrace 1.14, written by Peter Selinger 2001-2017
</metadata>
<g transform="translate(0.000000,100.000000) scale(0.100000,-0.100000)"
fill="#000000" stroke="none">
<path d="M436 945 c-6 -17 -33 -20 -38 -5 -6 20 -99 -20 -109 -47 -7 -19 -12
-22 -26 -14 -23 12 -97 -50 -98 -82 0 -15 -5 -21 -17 -19 -23 4 -72 -80 -64
-111 4 -16 -1 -26 -13 -34 -28 -17 -40 -112 -16 -125 15 -9 15 -11 1 -27 -24
-27 -11 -109 20 -123 18 -9 21 -14 12 -28 -15 -24 34 -110 62 -110 14 0 20 -7
20 -23 0 -30 72 -91 98 -83 11 4 21 -1 27 -16 13 -29 91 -55 116 -40 14 9 20
8 27 -5 14 -25 112 -25 130 0 11 14 17 15 28 7 20 -17 111 15 119 41 5 15 13
19 29 15 26 -6 96 55 96 85 0 17 10 23 31 21 4 -1 19 22 34 49 20 38 24 54 16
62 -9 9 -6 16 10 28 30 22 44 108 20 126 -15 11 -15 13 0 28 22 23 5 121 -23
129 -16 4 -18 8 -10 23 15 26 -35 113 -65 113 -16 0 -20 5 -16 19 7 27 -69 90
-102 83 -19 -3 -25 0 -25 14 0 27 -94 61 -117 43 -12 -11 -17 -10 -28 4 -16
23 -120 25 -129 2z m226 -142 c68 -37 116 -89 150 -160 102 -216 -41 -464
-280 -487 -137 -13 -273 64 -338 191 -26 52 -29 68 -29 153 0 89 2 99 34 158
54 99 129 154 241 177 71 14 160 1 222 -32z"/>
<path d="M477 804 c-2 -2 -21 -6 -43 -10 -37 -6 -84 -26 -108 -45 -44 -36 -64
-59 -82 -89 -74 -122 -59 -267 38 -372 154 -167 435 -103 509 115 50 146 -20
307 -162 372 -47 21 -141 39 -152 29z m108 -50 c38 -12 44 -23 29 -52 -50
-101 -169 -108 -225 -13 -20 33 -20 36 -3 48 10 7 34 15 53 19 20 3 41 7 46 9
12 3 73 -3 100 -11z m-217 -120 c52 -79 6 -171 -96 -189 -34 -6 -33 -7 -37 55
-2 38 21 107 49 151 30 45 45 42 84 -17z m351 21 c33 -48 50 -102 51 -157 l0
-48 -36 5 c-82 10 -132 69 -118 139 7 39 47 96 67 96 7 0 23 -16 36 -35z
m-271 -63 c2 -7 -3 -12 -12 -12 -9 0 -16 7 -16 16 0 17 22 14 28 -4z m142 3
c0 -8 -6 -15 -14 -15 -17 0 -28 14 -19 24 12 12 33 6 33 -9z m-14 -61 c19 -45
18 -59 -8 -88 -57 -63 -160 -19 -149 63 10 82 125 101 157 25z m-173 -85 c-17
-17 -37 -1 -22 17 8 10 15 12 23 4 7 -7 7 -13 -1 -21z m222 1 c-5 -8 -11 -8
-17 -2 -6 6 -7 16 -3 22 5 8 11 8 17 2 6 -6 7 -16 3 -22z m-210 -44 c19 -8 41
-28 50 -46 17 -32 23 -100 11 -119 -15 -24 -118 21 -167 72 -55 57 -56 65 -7
87 52 24 68 24 113 6z m300 2 c37 -17 31 -43 -24 -98 -34 -34 -64 -53 -97 -63
-57 -17 -64 -11 -64 46 0 45 21 90 52 111 26 19 96 21 133 4z m-197 -39 c-16
-10 -33 5 -23 21 5 8 11 8 21 -1 12 -10 12 -14 2 -20z"/>
<path d="M465 535 c-21 -21 -23 -27 -14 -54 12 -35 36 -46 72 -32 49 19 47 82
-4 100 -27 9 -33 7 -54 -14z"/>
</g>
</svg>
